<mxfile host="65bd71144e">
    <diagram id="iOV5gklj5m22nQtTpP3N" name="Page-1">
        <mxGraphModel dx="362" dy="319" grid="1" gridSize="10" guides="1" tooltips="1" connect="1" arrows="1" fold="1" page="1" pageScale="1" pageWidth="850" pageHeight="1100" math="0" shadow="0">
            <root>
                <mxCell id="0"/>
                <mxCell id="1" parent="0"/>
                <mxCell id="2" value="" style="rounded=0;whiteSpace=wrap;html=1;fillColor=default;" vertex="1" parent="1">
                    <mxGeometry x="210" y="20" width="140" height="180" as="geometry"/>
                </mxCell>
                <mxCell id="4" value="User" style="text;strokeColor=none;fillColor=none;html=1;fontSize=24;fontStyle=0;verticalAlign=middle;align=center;rounded=0;labelBorderColor=none;horizontal=1;fontFamily=Tahoma;" vertex="1" parent="1">
                    <mxGeometry x="240" y="35" width="80" height="30" as="geometry"/>
                </mxCell>
                <mxCell id="5" value="" style="rounded=0;whiteSpace=wrap;html=1;fillColor=default;" vertex="1" parent="1">
                    <mxGeometry x="210" y="80" width="140" height="60" as="geometry"/>
                </mxCell>
                <mxCell id="7" value="- Atributo: Integer" style="text;strokeColor=none;fillColor=none;html=1;fontSize=10;fontStyle=0;verticalAlign=middle;align=center;rounded=0;labelBorderColor=none;fontFamily=Tahoma;" vertex="1" parent="1">
                    <mxGeometry x="199" y="70" width="121" height="40" as="geometry"/>
                </mxCell>
                <mxCell id="8" value="- Metodo(): String&amp;nbsp;" style="text;strokeColor=none;fillColor=none;html=1;fontSize=10;fontStyle=0;verticalAlign=middle;align=center;rounded=0;labelBorderColor=none;fontFamily=Tahoma;" vertex="1" parent="1">
                    <mxGeometry x="199" y="130" width="121" height="40" as="geometry"/>
                </mxCell>
                <mxCell id="9" value="" style="rounded=0;whiteSpace=wrap;html=1;fillColor=default;" vertex="1" parent="1">
                    <mxGeometry x="371" y="20" width="140" height="180" as="geometry"/>
                </mxCell>
                <mxCell id="10" value="User" style="text;strokeColor=none;fillColor=none;html=1;fontSize=24;fontStyle=0;verticalAlign=middle;align=center;rounded=0;labelBorderColor=none;horizontal=1;fontFamily=Tahoma;" vertex="1" parent="1">
                    <mxGeometry x="401" y="35" width="80" height="30" as="geometry"/>
                </mxCell>
                <mxCell id="11" value="" style="rounded=0;whiteSpace=wrap;html=1;fillColor=default;" vertex="1" parent="1">
                    <mxGeometry x="371" y="80" width="140" height="60" as="geometry"/>
                </mxCell>
                <mxCell id="12" value="- Atributo: Integer" style="text;strokeColor=none;fillColor=none;html=1;fontSize=10;fontStyle=0;verticalAlign=middle;align=center;rounded=0;labelBorderColor=none;fontFamily=Tahoma;" vertex="1" parent="1">
                    <mxGeometry x="360" y="70" width="121" height="40" as="geometry"/>
                </mxCell>
                <mxCell id="13" value="- Metodo(): String&amp;nbsp;" style="text;strokeColor=none;fillColor=none;html=1;fontSize=10;fontStyle=0;verticalAlign=middle;align=center;rounded=0;labelBorderColor=none;fontFamily=Tahoma;" vertex="1" parent="1">
                    <mxGeometry x="360" y="130" width="121" height="40" as="geometry"/>
                </mxCell>
            </root>
        </mxGraphModel>
    </diagram>
</mxfile>